HIERARCHY
ROOT Hips
{
    OFFSET 0.0 0.0 0.0
    CHANNELS 6 Xposition Yposition Zposition Zrotation Xrotation Yrotation
    JOINT LeftUpLeg
    {
        OFFSET 13.410273499534632 0.0 0.0
        CHANNELS 3 Zrotation Xrotation Yrotation
        JOINT LeftLeg
        {
            OFFSET 0.0 0.0 -56.094232066151534
            CHANNELS 3 Zrotation Xrotation Yrotation
            JOINT LeftFoot
            {
                OFFSET 0.0 0.0 -45.96524922349708
                CHANNELS 3 Zrotation Xrotation Yrotation
                JOINT LeftToeBase
                {
                    OFFSET 0.0 -12.58890924830986 0.0
                    CHANNELS 3 Zrotation Xrotation Yrotation
                    End Site
                    {
                        OFFSET 0 0 0
                    }
                }
            }
        }
    }
    JOINT RightUpLeg
    {
        OFFSET -13.410273499534632 0.0 0.0
        CHANNELS 3 Zrotation Xrotation Yrotation
        JOINT RightLeg
        {
            OFFSET 0.0 0.0 -56.094232066151534
            CHANNELS 3 Zrotation Xrotation Yrotation
            JOINT RightFoot
            {
                OFFSET 0.0 0.0 -45.96524922349708
                CHANNELS 3 Zrotation Xrotation Yrotation
                JOINT RightToeBase
                {
                    OFFSET 0.0 -12.58890924830986 0.0
                    CHANNELS 3 Zrotation Xrotation Yrotation
                    End Site
                    {
                        OFFSET 0 0 0
                    }
                }
            }
        }
    }
    JOINT Spine
    {
        OFFSET 0.0 0.0 11.438264188938387
        CHANNELS 3 Zrotation Xrotation Yrotation
        JOINT Spine1
        {
            OFFSET 0.0 0.0 11.32515320023272
            CHANNELS 3 Zrotation Xrotation Yrotation
            JOINT Spine2
            {
                OFFSET 0.0 0.0 11.325153200232721
                CHANNELS 3 Zrotation Xrotation Yrotation
                JOINT Spine3
                {
                    OFFSET 0.0 0.0 11.325153200232718
                    CHANNELS 3 Zrotation Xrotation Yrotation
                    JOINT Spine4
                    {
                        OFFSET 0.0 0.0 11.325153200232725
                        CHANNELS 3 Zrotation Xrotation Yrotation
                        JOINT RightShoulder
                        {
                            OFFSET -22.3137408536019 0.0 0.0
                            CHANNELS 3 Zrotation Xrotation Yrotation
                            JOINT RightArm
                            {
                                OFFSET -37.60343070973835 0.0 0.0
                                CHANNELS 3 Zrotation Xrotation Yrotation
                                JOINT RightForeArm
                                {
                                    OFFSET -34.72469502475529 0.0 0.0
                                    CHANNELS 3 Zrotation Xrotation Yrotation
                                    JOINT RightHand
                                    {
                                        OFFSET -13.768559344885913 0.0 0.0
                                        CHANNELS 3 Zrotation Xrotation Yrotation
                                        End Site
                                        {
                                            OFFSET 0 0 0
                                        }
                                    }
                                }
                            }
                        }
                        JOINT LeftShoulder
                        {
                            OFFSET 22.3137408536019 0.0 0.0
                            CHANNELS 3 Zrotation Xrotation Yrotation
                            JOINT LeftArm
                            {
                                OFFSET 37.60343070973835 0.0 0.0
                                CHANNELS 3 Zrotation Xrotation Yrotation
                                JOINT LeftForeArm
                                {
                                    OFFSET 34.72469502475529 0.0 0.0
                                    CHANNELS 3 Zrotation Xrotation Yrotation
                                    JOINT LeftHand
                                    {
                                        OFFSET 13.768559344885913 0.0 0.0
                                        CHANNELS 3 Zrotation Xrotation Yrotation
                                        End Site
                                        {
                                            OFFSET 0 0 0
                                        }
                                    }
                                }
                            }
                        }
                        JOINT Neck
                        {
                            OFFSET 0.0 0.0 11.325153137452572
                            CHANNELS 3 Zrotation Xrotation Yrotation
                            JOINT Head
                            {
                                OFFSET 0.0 0.0 24.84135453236996
                                CHANNELS 3 Zrotation Xrotation Yrotation
                                End Site
                                {
                                    OFFSET 0 0 0
                                }
                            }
                        }
                    }
                }
            }
        }
    }
}
MOTION
Frames: 8
Frame Time: 0.03333333333333333
56.80364527702332 -13.080719840526582 471.136176109314 142.4881372632593 -79.2158923709193 139.88763998213432 -20.453928831291016 21.53479746619483 -21.854790739045878 16.516527724176363 -4.91683144973946 42.56127013568306 127.39254587257774 1.4312496066585827e-14 38.3095524693346 1.5902773407317584e-15 0.0 0.0 23.45029209669987 22.951266074012775 21.055863845495434 -31.739905458476848 -8.407875703308784 -46.481713671359614 -130.85515136090876 3.1805546814635168e-15 -44.77558954702701 -1.5902773407317584e-15 0.0 0.0 0.0584622012002696 2.376147503997974 -0.774270941425532 0.0 0.0 0.0 0.0 0.0 0.0 0.0 0.0 0.0 0.0 0.0 0.0 -163.11128137473264 5.5958077019301955 171.677380337817 35.56322066153432 -3.1930321999019952e-15 4.364160856543085e-15 -1.7730845156854937e-19 -0.012776420131438662 -1.5902773703853463e-15 7.951386703658792e-16 0.0 0.0 160.44377727931857 11.425906869860924 -170.80472461699236 -47.973733978809285 -1.4823996060240454e-14 -4.8553995825731105e-15 -180.0 -77.58096969673355 -180.0 -7.951386703658792e-16 -5.517382872562698e-33 7.951386703658792e-16 -0.3177010694432899 -8.671947794841789e-15 -2.4042732039441812e-17 -1.7241821476758432e-34 -2.4848083448933725e-17 -7.951386703658792e-16
56.689900732040414 -13.12981266975403 471.1573093414307 143.0218734281014 -79.19989495938005 140.4524135258312 -20.20010222639646 21.367122008480465 -21.617961327949985 16.343997980325742 -4.976437355191556 41.915487935470956 119.49111893386063 -2.2263882770244617e-14 48.202025031391905 2.3854160110976376e-15 0.0 0.0 23.485674476204967 22.950148038788278 21.00885919473333 -31.828902346333038 -8.4261467094577 -46.32844676200527 -130.34911310972643 0.0 -43.972852925497286 1.5902773407317582e-15 -4.4139062980501586e-32 -3.1805546814635164e-15 0.05891342543349943 2.3623110795606337 -0.7774298506608892 7.951386703658792e-16 -5.517382872562698e-33 -7.951386703658792e-16 7.951386703658792e-16 -5.517382872562698e-33 -7.951386703658792e-16 7.951386703658792e-16 -5.517382872562698e-33 -7.951386703658792e-16 7.951386703658792e-16 -5.517382872562698e-33 -7.951386703658792e-16 -163.16523056504664 5.5941527802691615 171.73360371739437 35.410568690792566 -1.4509098374158725e-15 -4.544854104115302e-15 1.5743371076057987e-15 2.452784781895288 7.616176740969207e-16 0.0 0.0 0.0 160.65679552981342 11.294989312516527 -170.82602556665114 -47.581297224475776 6.733331697225009e-15 -2.2454381736096926e-15 -179.99999999999994 -84.60171010213804 -179.99999999999994 -7.951386703658792e-16 -1.793149433582877e-32 2.5842006786891076e-15 -0.26853764143902903 1.3817359814887322e-14 -7.627607373971479e-16 0.0 0.0 0.0
56.592981505393986 -13.164421033859252 471.17530345916754 143.4430621661017 -79.18187100731203 140.8985785713376 -20.148856809971562 21.354292633124338 -21.477182357619146 16.60566528557822 -5.113294808345456 41.66609928592164 118.4861627838303 1.2722218725854067e-14 48.69597436768579 1.5902773407317584e-15 0.0 0.0 23.486364278543693 22.93563423485163 20.978933969202103 -31.744930186675443 -8.408928829072428 -47.62991689281728 -129.63789165240584 -3.1805546814635168e-15 -43.03143618407534 -2.3854160110976376e-15 0.0 0.0 0.059289410621261585 2.356702640678753 -0.7756741303696344 -7.951386703658792e-16 0.0 0.0 -7.951386703658792e-16 0.0 0.0 -7.951386703658792e-16 0.0 0.0 -7.951386703658792e-16 0.0 0.0 -163.22048778713958 5.591501882890732 171.78491585173273 35.29198575799546 3.908813842599249e-15 3.762991585912143e-15 1.5634312566308425e-15 4.355047120843468 7.362664964998602e-16 0.0 0.0 0.0 160.81525600155237 11.208607318844154 -170.83564487191697 -47.253140532120824 4.906079736718724e-15 5.617674037138553e-15 -179.99999999999997 -82.81899942658288 -179.99999999999997 -1.590277340731758e-15 -1.3793457181406746e-32 9.939233379573488e-16 -0.22850946244570525 -8.647115847487871e-15 -1.7243420282813877e-17 0.0 0.0 0.0
56.507677745819095 -13.187612682580948 471.19106597900395 143.77392374458546 -79.16393896187817 141.2486181765067 -20.209034081826918 21.426024835313864 -21.405755153878857 17.097553227123502 -5.286586814273383 41.68591840426376 123.1514069111842 -3.1805546814635168e-15 40.76016685812429 0.0 0.0 0.0 23.44779061821835 22.90430523093065 20.964110658302875 -31.77446920090055 -8.425645757039556 -48.571450555152985 -128.7108666269486 -6.3611093629270335e-15 -40.977530810978635 0.0 0.0 0.0 0.059504817706064965 2.361050978490943 -0.7699715254374584 0.0 0.0 7.951386703658792e-16 0.0 0.0 7.951386703658792e-16 0.0 0.0 7.951386703658792e-16 0.0 0.0 7.951386703658792e-16 -163.27828907607858 5.589771093885457 171.83130757285724 35.193215126604166 3.9423585758867174e-15 1.252179236852616e-15 7.69559518605774e-16 3.8751281877907195 7.69559518605774e-16 -7.951386703658792e-16 0.0 0.0 160.92906713536846 11.169157624124937 -170.83678291164895 -46.9670841340208 -5.0612462713051426e-15 -7.400625923919927e-15 180.0 -70.93850599804036 180.0 1.5902773407317588e-15 -1.6552148617688095e-32 -1.1927080055488192e-15 -0.19611252140167662 4.969609412019172e-17 8.505020718476936e-20 0.0 0.0 7.951386703658792e-16
56.435666871070865 -13.201479971408844 471.2044332504273 144.0079512363104 -79.14520090003839 141.49460264994718 -20.27471854589696 21.497878582068573 -21.375388678709946 17.583683807586933 -5.443766696148387 41.7826640375778 136.84596978433206 3.1805546814635168e-15 27.953401735916103 -1.5902773407317584e-15 0.0 0.0 23.399234784911798 22.873316242683934 20.95950433498995 -31.047532005828813 -8.26667729746712 -48.2028575363228 -125.36968705989297 0.0 -39.115909756961074 3.1805546814635168e-15 0.0 0.0 0.05939122827611658 2.3704043557381125 -0.7624861429261581 0.0 0.0 0.0 0.0 0.0 0.0 0.0 0.0 0.0 0.0 0.0 0.0 -163.3325204563614 5.58305575254992 171.86834089022017 35.11398803601953 1.3885639204686377e-14 -3.559327610437492e-15 2.3754489501406162e-15 1.5275677279269004 7.635414243108674e-16 0.0 0.0 0.0 160.98085307835623 11.168592901411659 -170.83282851096746 -46.760815166853604 -7.290778901204745e-15 -6.617112533377366e-15 180.0 -60.26955983873998 180.0 0.0 0.0 -7.951386703658792e-16 -0.17499714396584834 -1.1654951834542379e-14 7.773408618839221e-16 -1.7241821476758432e-34 -2.4848083448933725e-17 -7.951386703658792e-16
56.37361543178559 -13.207036417722701 471.2158069610596 144.16663303571997 -79.12680205177844 141.6592413217161 -20.336591599022785 21.56291738188708 -21.381575382704526 18.055158438524927 -5.583736130666483 41.92496666263308 174.25910346395796 3.876301018033661e-15 16.43876073808879 -1.4908850069360235e-16 -1.034509288605506e-33 7.951386703658792e-16 23.33691307475598 22.83957973405815 20.965520392862725 -30.391344328622463 -8.12523531894582 -47.83645055346614 -121.58517431777479 0.0 -37.46590558699203 0.0 0.0 0.0 0.058944805289718016 2.384425852926766 -0.7530903903204736 0.0 0.0 0.0 0.0 0.0 0.0 0.0 0.0 0.0 0.0 0.0 0.0 -163.38507210381053 5.572132819915696 171.89861498987693 35.04718392881382 -4.788300806376852e-16 -1.5164774229514201e-15 -2.383509712637457e-15 0.2777531457474966 -7.893637165621579e-16 -7.95138670365879e-16 -5.517382872562698e-33 7.95138670365879e-16 160.9871692801183 11.169569549518192 -170.82722826447306 -46.63808384881762 -1.0174983208431465e-14 -6.117783719059834e-15 180.0 -58.981339961548585 180.0 1.5902773407317584e-15 0.0 0.0 -0.16329369144400335 -1.056155782077861e-14 7.800891812613261e-16 7.951386703658791e-16 -2.4848083448933725e-17 -7.951386703658791e-16
56.317248058319095 -13.199934124946596 471.22610950469976 144.25811363677016 -79.11205357059741 141.74810790731652 -20.2991928253675 21.547026221226236 -21.416189718079945 18.408230749285273 -5.68940334151204 42.012809220858394 -135.16863190904806 -2.3854160110976374e-14 16.253324642049744 -3.1805546814635168e-15 0.0 0.0 23.23622312279958 22.792107008550534 20.986348907596312 -29.604492622355036 -7.960726349073935 -47.181629065381955 -117.39267616217994 0.0 -36.28239270316739 1.5902773407317584e-15 0.0 0.0 0.05776194894146447 2.4048062840396973 -0.7404506573404575 0.0 0.0 -7.951386703658792e-16 0.0 0.0 -7.951386703658792e-16 0.0 0.0 -7.951386703658792e-16 0.0 0.0 -7.951386703658792e-16 -163.4463395416903 5.535806519850889 171.93945375151182 34.978372527655495 -8.350066553441077e-15 -7.036724838441042e-16 7.82704290087211e-16 -0.598862611154056 -2.3813580878652253e-15 -7.951386703658792e-16 0.0 0.0 160.95577000982027 11.031513777508394 -170.8187035419947 -46.70633017092719 -1.7193056975891621e-15 -2.4745212962197213e-15 -180.0 -58.64017487672578 -180.0 0.0 0.0 7.951386703658792e-16 -0.15237227500512412 6.660337771913978e-15 -7.862831239882318e-16 0.0 -2.484808344893373e-17 0.0
56.26469113826752 -13.178613299131396 471.23630790710456 144.2853087597924 -79.10007767075285 141.76551718896195 -20.152679680943617 21.44167602625448 -21.479388558678618 18.448874953390987 -5.704703701719227 41.98221541176389 -107.74431859194348 1.5902773407317584e-15 23.829120890880976 0.0 0.0 0.0 23.10062550185319 22.732664489223726 21.02222078105708 -29.261433967527218 -7.910789818575703 -45.250444611364955 -115.87925359592742 0.0 -34.55588726283047 1.5902773407317584e-15 0.0 0.0 0.055646755568573195 2.429387924083991 -0.7250240240500982 -1.7241821476758432e-34 -2.4848083448933725e-17 -7.951386703658792e-16 -1.7241821476758432e-34 -2.4848083448933725e-17 -7.951386703658792e-16 -1.7241821476758432e-34 -2.4848083448933725e-17 -7.951386703658792e-16 -1.7241821476758432e-34 -2.4848083448933725e-17 -7.951386703658792e-16 -163.51896791298248 5.466340857730849 171.99648145223287 34.905504124856236 2.085968890790443e-15 -6.558127926916951e-16 2.4012977748768373e-15 -1.11958994573837 1.6138153093146547e-15 0.0 0.0 0.0 160.85130653159825 10.918344262165144 -170.80757648909258 -46.86517877061556 1.0909238618465821e-14 4.7282179925581265e-15 180.0 -58.22975128424915 180.0 0.0 0.0 -1.5902773407317584e-15 -0.14708457993026697 -7.503094415992824e-15 -8.047699657546607e-16 0.0 0.0 0.0
